<?xml version="1.0" standalone="no"?>
<!DOCTYPE svg PUBLIC "-//W3C//DTD SVG 20010904//EN"
 "http://www.w3.org/TR/2001/REC-SVG-20010904/DTD/svg10.dtd">
<svg version="1.0" xmlns="http://www.w3.org/2000/svg"
 width="487.000000pt" height="297.000000pt" viewBox="0 0 487.000000 297.000000"
 preserveAspectRatio="xMidYMid meet">

<g transform="translate(0.000000,297.000000) scale(0.100000,-0.100000)"
fill="#000000" stroke="none">
<path d="M4850 1495 l0 -1475 -2425 0 c-1610 0 -2425 -3 -2425 -10 0 -7 818
-10 2435 -10 l2435 0 0 1485 c0 983 -3 1485 -10 1485 -7 0 -10 -498 -10 -1475z"/>
<path d="M1530 2162 c0 -114 14 -181 53 -255 43 -82 111 -139 293 -242 169
-97 235 -152 283 -236 34 -60 35 -58 20 61 -19 155 -73 271 -172 372 -29 29
-121 100 -204 157 -101 68 -173 125 -213 168 l-60 66 0 -91z"/>
<path d="M1202 1837 c24 -225 105 -360 266 -441 39 -20 151 -59 249 -87 271
-77 368 -130 465 -253 l41 -51 -7 45 c-27 172 -89 305 -187 400 -83 81 -156
119 -402 210 -204 75 -295 122 -379 199 l-54 49 8 -71z"/>
<path d="M2436 1659 c-40 -31 -56 -77 -56 -159 0 -115 33 -167 112 -177 27 -3
53 -15 70 -31 23 -21 30 -23 43 -12 14 12 13 16 -10 39 -22 24 -23 28 -9 42
26 26 40 140 26 206 -15 72 -44 103 -103 110 -35 4 -50 0 -73 -18z m114 -39
c15 -15 20 -35 22 -77 4 -131 -6 -169 -47 -179 -69 -17 -105 29 -105 135 0 66
13 110 37 129 25 18 70 15 93 -8z"/>
<path d="M2926 1649 c-32 -53 5 -53 43 0 l22 31 -23 0 c-16 0 -30 -10 -42 -31z"/>
<path d="M2745 1580 c-3 -5 -19 -7 -35 -3 l-30 6 0 -132 c0 -124 1 -131 20
-131 19 0 20 7 20 95 0 82 3 98 20 115 11 11 27 20 35 20 8 0 15 9 15 20 0 21
-33 29 -45 10z"/>
<path d="M3122 1580 c-49 -20 -69 -142 -34 -210 32 -65 126 -65 159 0 19 38
-3 52 -29 18 -15 -21 -28 -28 -54 -28 -28 0 -36 5 -45 28 -15 37 -7 141 12
153 29 18 69 10 81 -16 15 -33 52 -35 43 -2 -16 54 -76 79 -133 57z"/>
<path d="M3355 1578 c-25 -13 -45 -38 -45 -55 0 -20 34 -15 48 7 15 24 67 27
76 4 15 -40 7 -51 -39 -57 -62 -6 -85 -29 -85 -83 0 -46 24 -74 65 -74 11 0
31 7 43 16 20 14 22 14 22 0 0 -10 9 -16 23 -16 22 0 22 1 17 116 -5 107 -7
117 -29 135 -26 21 -65 24 -96 7z m85 -163 c0 -36 -20 -55 -59 -55 -27 0 -45
34 -31 59 12 23 25 29 63 30 24 1 27 -2 27 -34z"/>
<path d="M2840 1472 c0 -95 2 -111 20 -130 22 -24 59 -28 91 -12 13 7 19 7 19
0 0 -5 9 -10 20 -10 19 0 20 7 20 130 0 123 -1 130 -20 130 -19 0 -20 -7 -20
-99 0 -109 -8 -125 -57 -119 l-28 3 -3 108 c-2 99 -4 107 -22 107 -19 0 -20
-7 -20 -108z"/>
<path d="M1050 1472 c0 -37 47 -177 81 -242 53 -103 123 -173 214 -217 90 -42
166 -57 395 -78 275 -25 359 -51 458 -140 29 -26 52 -44 52 -41 0 3 -17 43
-39 90 -102 221 -215 299 -546 376 -277 64 -390 108 -542 211 -40 27 -73 46
-73 41z"/>
</g>
</svg>
